<svg width="39" height="39" viewBox="0 0 39 39" fill="none" xmlns="http://www.w3.org/2000/svg">
<path d="M4.39514 21.4095H15.4197C15.5253 21.4029 15.6309 21.3963 15.743 21.3963H28.2257V1.16805C28.2257 0.686425 27.8364 0.297165 27.3548 0.297165H1.22829C0.746666 0.297165 0.357407 0.686425 0.357407 1.16805V29.1221C0.357407 29.6037 0.746666 29.993 1.22829 29.993H5.72786C6.03794 27.9741 6.94181 26.1598 8.26133 24.7149H4.39514V21.4095ZM4.39514 5.57525H24.1879V8.87405H4.39514V5.57525V5.57525ZM4.39514 13.4924H24.1879V16.7912H4.39514V13.4924V13.4924Z" fill="black" fill-opacity="0.79"/>
<path d="M13.5195 33.9977C12.8465 33.3247 12.4771 32.4341 12.4771 31.484C12.4771 30.943 12.609 30.4416 12.8201 29.9798C13.3875 28.7724 14.6081 27.9279 16.0266 27.9279H21.5554V26.6612V24.6951V24.0155V23.9627H16.0266C15.479 23.9627 14.938 24.0287 14.4168 24.1409C13.856 24.2596 13.3216 24.451 12.8069 24.6951C12.0416 25.0579 11.3291 25.5462 10.7155 26.1663C9.65989 27.222 8.95395 28.5415 8.66365 29.9732C8.56469 30.4614 8.51191 30.9628 8.51191 31.4774C8.51191 33.4831 9.29042 35.37 10.7089 36.7885C12.1274 38.207 14.0143 38.9855 16.02 38.9855H21.5488V36.3992V35.0269H16.02C15.0831 35.0401 14.1924 34.6707 13.5195 33.9977Z" fill="black" fill-opacity="0.79"/>
<path d="M30.7789 23.9825H28.2322H25.2501V24.0353V26.6744V27.9411H28.2322H30.7789C32.7383 27.9411 34.3284 29.5377 34.3284 31.4906C34.3284 33.4501 32.7383 35.0401 30.7789 35.0401H25.2501V36.4124V38.9987H30.7789C31.2275 38.9987 31.6695 38.9525 32.0984 38.8733C35.6083 38.2466 38.2869 35.1787 38.2869 31.4906C38.2869 27.3473 34.9156 23.9825 30.7789 23.9825Z" fill="black" fill-opacity="0.79"/>
<path d="M18.4083 29.9864V33.5293H28.628V29.5707H28.0804H18.4083V29.9864Z" fill="black" fill-opacity="0.79"/>
</svg>
