<svg width="122" height="32" viewBox="0 0 122 32" fill="none" xmlns="http://www.w3.org/2000/svg">
<g clip-path="url(#clip0_10_2)">
<path d="M8.44929 17.0265L8.22177 16.8145C8.12039 16.7184 8.03976 16.6032 7.98468 16.4757C7.92959 16.3483 7.90121 16.2112 7.90121 16.0726C7.90121 15.9341 7.92959 15.7969 7.98468 15.6695C8.03976 15.542 8.12039 15.4268 8.22177 15.3308L8.59073 14.9674L16.5849 7.33078C16.6201 7.29745 16.6481 7.25747 16.6672 7.21325C16.6863 7.16902 16.6961 7.12145 16.6961 7.07339C16.6961 7.02534 16.6863 6.97777 16.6672 6.93354C16.6481 6.88932 16.6201 6.84935 16.5849 6.81601L14.8016 5.05977C14.1105 4.38485 13.1767 4.00615 12.2035 4.00615C11.2302 4.00615 10.2964 4.38485 9.60538 5.05977L1.07 13.4231C0.384234 14.1096 -9.15527e-05 15.034 -9.15527e-05 15.997C-9.15527e-05 16.9599 0.384234 17.8843 1.07 18.5707L9.59923 26.9401C10.2905 27.6169 11.2256 27.9968 12.2005 27.9968C13.1752 27.9968 14.1103 27.6169 14.8016 26.9401L16.5849 25.1839C16.653 25.115 16.691 25.0226 16.691 24.9265C16.691 24.8304 16.653 24.7381 16.5849 24.6691L8.44929 17.0265Z" fill="#5846F6"/>
<path d="M42.2186 7.99709H40.3586C40.1662 7.99709 40.0379 8.12536 40.0379 8.31777V23.775C40.0379 23.9674 40.1662 24.0956 40.3586 24.0956H42.2186C42.411 24.0956 42.5393 23.9674 42.5393 23.775V8.31777C42.5393 8.12536 42.411 7.99709 42.2186 7.99709Z" fill="#5846F6"/>
<path d="M56.9702 12.1018H55.1102C54.9177 12.1018 54.7895 12.23 54.7895 12.4225V18.7721C54.7895 19.8624 54.5329 20.6962 53.9558 21.2092C53.4426 21.7865 52.673 22.0431 51.775 22.0431C50.8771 22.0431 50.1074 21.7865 49.5943 21.2092C49.0812 20.6321 48.7606 19.7983 48.7606 18.7721V12.4225C48.7606 12.23 48.6323 12.1018 48.4399 12.1018H46.644C46.4516 12.1018 46.3233 12.23 46.3233 12.4225V19.1569C46.3233 20.2473 46.5158 21.1452 46.9648 21.9148C47.4137 22.6844 47.9909 23.2617 48.6964 23.6465C49.4019 24.0313 50.2998 24.2238 51.2619 24.2238C51.9674 24.2238 52.673 24.0955 53.2501 23.7748C53.8916 23.5183 54.4047 23.1334 54.7895 22.6203V23.7748C54.7895 23.9673 54.9177 24.0955 55.1102 24.0955H56.9702C57.1626 24.0955 57.2909 23.9673 57.2909 23.7748V12.4225C57.2909 12.23 57.1626 12.1018 56.9702 12.1018Z" fill="#5846F6"/>
<path d="M77.6225 12.4864C76.5963 11.9733 75.4418 11.7809 74.0949 11.9733H74.0308C72.7481 12.3581 71.786 12.9354 71.2087 13.8333C71.0805 14.0257 70.8239 14.0257 70.6957 13.8333C70.3108 13.2561 69.7977 12.8071 69.2205 12.4864C68.4508 12.1016 67.6171 11.9092 66.655 11.9092C65.9495 11.9092 65.3081 12.0375 64.6667 12.294C64.0253 12.5506 63.5122 12.9354 63.1274 13.4485V12.4223C63.1274 12.2299 62.9992 12.1016 62.8067 12.1016H60.9467C60.7543 12.1016 60.6261 12.2299 60.6261 12.4223V23.7746C60.6261 23.9671 60.7543 24.0953 60.9467 24.0953H62.8067C62.9992 24.0953 63.1274 23.9671 63.1274 23.7746V17.3609C63.1274 16.2706 63.384 15.4367 63.9611 14.9237C64.4743 14.3464 65.2439 14.0899 66.1419 14.0899C67.0398 14.0899 67.8095 14.3464 68.3226 14.9237C68.8356 15.5009 69.1563 16.3346 69.1563 17.3609V23.7746C69.1563 23.9671 69.2847 24.0953 69.4771 24.0953H71.2729C71.4653 24.0953 71.5936 23.9671 71.5936 23.7746V17.3609C71.5936 16.2706 71.8502 15.4367 72.4274 14.9237C73.0046 14.4105 73.7102 14.0899 74.6081 14.0899C75.506 14.0899 76.2757 14.3464 76.7887 14.9237C77.3018 15.5009 77.6225 16.3346 77.6225 17.3609V23.7746C77.6225 23.9671 77.7508 24.0953 77.9432 24.0953H79.7391C79.9315 24.0953 80.0597 23.9671 80.0597 23.7746V17.0401C80.0597 15.9498 79.8673 15.0519 79.4184 14.2823C78.9694 13.4485 78.3921 12.8712 77.6225 12.4864Z" fill="#5846F6"/>
<path d="M91.348 12.6789C90.45 12.1658 89.4238 11.9092 88.3335 11.9092C87.179 11.9092 86.0886 12.1658 85.1907 12.6789C84.2928 13.192 83.5873 13.8975 83.0741 14.8596C82.5611 15.8217 82.3046 16.8478 82.3046 18.1306C82.3046 19.3491 82.5611 20.4396 83.0741 21.4016C83.5873 22.3637 84.2928 23.0692 85.1907 23.5822C86.0886 24.0954 87.1148 24.3519 88.2693 24.3519C89.6804 24.3519 90.8348 24.0312 91.7969 23.3257C92.6307 22.7485 93.2079 21.9788 93.5927 21.0809C93.6569 20.8885 93.5286 20.6319 93.272 20.6319H91.2196C91.0914 20.6319 91.0272 20.6961 90.9631 20.8243C90.3859 21.8506 89.488 22.2995 88.2052 22.2995C87.3073 22.2995 86.4735 21.9788 85.8321 21.4016C85.2549 20.8885 84.9341 20.2472 84.8059 19.4775C84.8059 19.2851 84.9341 19.0927 85.1265 19.0927H93.6569C93.8493 19.0927 93.9775 18.9644 93.9775 18.8361C94.0417 18.5154 94.0417 18.2588 94.0417 17.874C94.0417 16.7196 93.7851 15.6933 93.272 14.7954C92.8872 13.8334 92.2459 13.1278 91.348 12.6789ZM91.2196 17.0402H85.319C85.1265 17.0402 84.9341 16.8478 84.9983 16.6554C85.1266 15.8857 85.5114 15.3085 86.0245 14.7954C86.6017 14.2823 87.3714 13.9616 88.2052 13.9616C89.1672 13.9616 89.9369 14.2182 90.5783 14.7954C91.1556 15.2444 91.4762 15.8857 91.5404 16.6554C91.5404 16.8478 91.412 17.0402 91.2196 17.0402Z" fill="#5846F6"/>
<path d="M105.138 12.4865C104.368 12.1017 103.534 11.9092 102.572 11.9092C101.867 11.9092 101.161 12.0375 100.584 12.2941C99.9425 12.5506 99.4294 12.9354 99.0446 13.4485V12.4223C99.0446 12.2299 98.9163 12.1017 98.7239 12.1017H96.8639C96.6715 12.1017 96.5432 12.2299 96.5432 12.4223V23.7746C96.5432 23.9671 96.6715 24.0954 96.8639 24.0954H98.7239C98.9163 24.0954 99.0446 23.9671 99.0446 23.7746V17.3609C99.0446 16.2706 99.3011 15.4368 99.8784 14.9237C100.391 14.3465 101.161 14.0899 102.059 14.0899C102.957 14.0899 103.727 14.3465 104.24 14.9237C104.753 15.5009 105.073 16.3347 105.073 17.3609V23.7746C105.073 23.9671 105.201 24.0954 105.394 24.0954H107.19C107.382 24.0954 107.511 23.9671 107.511 23.7746V17.0402C107.511 15.9499 107.319 15.052 106.869 14.2823C106.485 13.4485 105.907 12.8713 105.138 12.4865Z" fill="#5846F6"/>
<path d="M118.927 14.6673C118.157 14.1541 117.195 13.8976 115.976 13.8976C115.271 13.8976 114.63 14.0259 114.053 14.2824C113.732 14.4107 113.411 14.6031 113.218 14.7955C113.026 14.9879 112.706 14.7955 112.706 14.5389V11.3321C112.706 11.1397 112.834 11.0114 113.026 11.0114H118.286C118.35 11.0114 118.479 10.9473 118.542 10.9473L120.081 9.40794C120.274 9.21553 120.146 8.83071 119.825 8.83071H110.717C110.525 8.83071 110.397 8.95899 110.397 9.15139V17.6817C110.397 17.8741 110.525 18.0023 110.717 18.0023H112.513C112.641 18.0023 112.77 17.9383 112.834 17.8099C113.026 17.2968 113.347 16.8479 113.797 16.5913C114.309 16.2065 114.887 16.0783 115.592 16.0783C116.618 16.0783 117.388 16.3349 117.901 16.912C118.414 17.4893 118.671 18.2589 118.671 19.2851C118.671 20.3113 118.414 21.1451 117.901 21.7865C117.388 22.4278 116.618 22.7486 115.592 22.7486C114.759 22.7486 114.053 22.5562 113.54 22.1713C113.026 21.8507 112.706 21.3375 112.513 20.7603C112.449 20.632 112.385 20.5038 112.193 20.5038C111.744 20.5038 110.91 20.5038 110.397 20.5038C110.205 20.5038 110.012 20.6962 110.077 20.8886C110.333 21.9789 110.846 22.941 111.744 23.6465C112.706 24.4162 113.989 24.801 115.528 24.801C116.746 24.801 117.709 24.5444 118.542 24.0954C119.376 23.6465 119.953 22.941 120.403 22.1072C120.787 21.2734 121.043 20.3113 121.043 19.221C121.043 18.3231 120.851 17.4893 120.53 16.7196C120.21 15.95 119.696 15.1804 118.927 14.6673Z" fill="#5846F6"/>
</g>
<defs>
<clipPath id="clip0_10_2">
<rect width="121.043" height="24" fill="white" transform="translate(0 4)"/>
</clipPath>
</defs>
</svg>
